<svg version="1.1" id="Layer_1" xmlns="http://www.w3.org/2000/svg" xmlns:xlink="http://www.w3.org/1999/xlink" x="0px" y="0px"
	 viewBox="0 0 528 528" style="enable-background:new 0 0 528 528;" xml:space="preserve">
	<g>
		<path fill="#0E317D" d="M424,244.58c0-13.41-6.05-25.97-16.36-34.34c0.45-2.14,0.67-4.2,0.67-6.22c0-16.7-12.35-30.57-28.39-32.96
			c0.37-1.92,0.54-3.8,0.54-5.68c0-17.78-14.01-32.31-31.57-33.23c-0.29-0.05-0.58-0.09-0.88-0.09c-0.15,0-0.29,0.02-0.44,0.02
			c-0.15,0-0.29-0.02-0.44-0.02c-1.67,0-3.35,0.15-5.13,0.46c-3.09-16.36-17.34-28.54-34.42-28.54c-19.37,0-35.13,15.76-35.13,35.13
			v240.43c0,24.52,19.95,44.46,44.46,44.46c16.27,0,31.03-8.8,38.83-22.78c1.75,0.38,3.42,0.61,5.11,0.72
			c10.59,0.67,20.9-2.79,28.91-9.82s12.8-16.76,13.5-27.39c0.29-4.43-0.21-8.88-1.47-13.27c13.85-9.82,21.98-25.36,21.98-42.39
			c0-12.35-4.45-24.2-12.57-33.64C419.38,267.16,424,256.1,424,244.58z M379.71,276.69"/>
		<path fill="#0E317D" d="M220.41,103.99c-17.08,0-31.33,12.18-34.41,28.54c-1.78-0.31-3.46-0.46-5.13-0.46c-0.15,0-0.29,0.02-0.44,0.02
			c-0.15,0-0.29-0.02-0.44-0.02c-0.3,0-0.59,0.04-0.88,0.09c-17.55,0.92-31.56,15.45-31.56,33.23c0,1.87,0.18,3.76,0.54,5.68
			c-16.04,2.39-28.39,16.26-28.39,32.96c0,2.02,0.22,4.08,0.67,6.22c-10.31,8.36-16.36,20.93-16.36,34.34
			c0,11.52,4.62,22.59,12.78,30.87c-8.12,9.44-12.57,21.3-12.57,33.64c0,17.03,8.14,32.57,21.98,42.39
			c-1.27,4.39-1.76,8.84-1.47,13.27c0.69,10.63,5.48,20.36,13.49,27.39c8.01,7.03,18.29,10.5,28.91,9.82
			c1.66-0.11,3.35-0.35,5.11-0.73c7.8,13.98,22.56,22.78,38.83,22.78c24.52,0,44.46-19.95,44.46-44.46V139.12
			C255.54,119.75,239.78,103.99,220.41,103.99z M148.29,287.64"/>
	</g>
	<circle fill="#2463EB" cx="264" cy="32" r="32"/>
	<circle fill="#2463EB" cx="264" cy="496" r="32"/>
	<circle fill="#2463EB" cx="32" cy="264" r="32"/>
	<circle fill="#2463EB" cx="496" cy="264" r="32"/>
	<path fill="#2463EB" d="M122.58,77.33c12.5,12.5,12.5,32.76,0,45.25c-5.22,5.22-11.79,8.26-18.58,9.12c-9.48,1.2-19.4-1.84-26.68-9.12
		c-12.5-12.5-12.5-32.76,0-45.25S110.08,64.83,122.58,77.33z"/>
	<circle fill="#2463EB" cx="428.05" cy="428.05" r="32"/>
	<circle fill="#2463EB" cx="99.95" cy="428.05" r="32"/>
	<circle fill="#2463EB" cx="428.05" cy="99.95" r="32"/>
	<circle fill="#2463EB" cx="175.22" cy="49.66" r="32"/>
	<circle fill="#2463EB" cx="352.78" cy="478.34" r="32"/>
	<circle fill="#2463EB" cx="49.66" cy="352.78" r="32"/>
	<circle fill="#2463EB" cx="478.34" cy="175.22" r="32"/>
	<path fill="#2463EB" d="M61.91,145.65c16.33,6.76,24.08,25.48,17.32,41.81C76.4,194.28,71.5,199.6,65.55,203
		c-8.3,4.74-18.62,5.73-28.14,1.79c-16.33-6.76-24.08-25.48-17.32-41.81S45.58,138.89,61.91,145.65z"/>
	<circle fill="#2463EB" cx="478.34" cy="352.78" r="32"/>
	<circle fill="#2463EB" cx="175.22" cy="478.34" r="32"/>
	<circle fill="#2463EB" cx="352.78" cy="49.66" r="32"/>
</svg>
